<svg xmlns="http://www.w3.org/2000/svg" viewBox="0 0 1200 675" role="img" aria-labelledby="title desc">
  <title id="title">Cauldron Rush</title>
  <desc id="desc">A glowing alchemy cauldron surrounded by colorful game chips on a deep purple background.</desc>
  <defs>
    <radialGradient id="bg" cx="50%" cy="18%" r="85%">
      <stop offset="0" stop-color="#65306a"/>
      <stop offset="0.48" stop-color="#24132f"/>
      <stop offset="1" stop-color="#0d0814"/>
    </radialGradient>
    <linearGradient id="pot" x1="0" y1="0" x2="0" y2="1">
      <stop offset="0" stop-color="#493056"/>
      <stop offset="1" stop-color="#17101f"/>
    </linearGradient>
    <radialGradient id="brew" cx="50%" cy="38%" r="62%">
      <stop offset="0" stop-color="#ffe790"/>
      <stop offset="0.4" stop-color="#ffb54f"/>
      <stop offset="1" stop-color="#b44c5c"/>
    </radialGradient>
    <filter id="glow" x="-50%" y="-50%" width="200%" height="200%">
      <feGaussianBlur stdDeviation="16" result="blur"/>
      <feMerge><feMergeNode in="blur"/><feMergeNode in="SourceGraphic"/></feMerge>
    </filter>
  </defs>
  <rect width="1200" height="675" fill="url(#bg)"/>
  <g opacity=".18" fill="#fff5d6">
    <circle cx="108" cy="98" r="4"/><circle cx="166" cy="165" r="2"/><circle cx="1037" cy="116" r="5"/><circle cx="1100" cy="188" r="2"/><circle cx="964" cy="246" r="3"/>
  </g>
  <text x="600" y="110" text-anchor="middle" font-family="Georgia,serif" font-size="74" font-weight="700" fill="#ffd979" stroke="#7e3d2f" stroke-width="2">CAULDRON RUSH</text>
  <text x="600" y="154" text-anchor="middle" font-family="system-ui,sans-serif" font-size="22" letter-spacing="8" fill="#d8c2e8">PARTI ALCHEMY LEAGUE</text>
  <ellipse cx="600" cy="425" rx="260" ry="55" fill="#000" opacity=".35"/>
  <g filter="url(#glow)">
    <ellipse cx="600" cy="355" rx="185" ry="52" fill="url(#brew)" opacity=".92"/>
  </g>
  <path d="M430 345 C444 510 490 570 600 570 C710 570 756 510 770 345 Z" fill="url(#pot)" stroke="#9c78a8" stroke-width="8"/>
  <ellipse cx="600" cy="345" rx="175" ry="42" fill="#17101f" stroke="#b694c3" stroke-width="10"/>
  <ellipse cx="600" cy="344" rx="148" ry="28" fill="url(#brew)"/>
  <path d="M455 420 Q395 430 395 485 Q395 535 455 535" fill="none" stroke="#6f527d" stroke-width="18" stroke-linecap="round"/>
  <path d="M745 420 Q805 430 805 485 Q805 535 745 535" fill="none" stroke="#6f527d" stroke-width="18" stroke-linecap="round"/>
  <g font-family="system-ui,sans-serif" font-weight="800" font-size="28" text-anchor="middle" dominant-baseline="middle">
    <g transform="translate(305 355)"><circle r="45" fill="#eee8dc" stroke="#fff" stroke-opacity=".55" stroke-width="6"/><text fill="#23142e">3</text></g>
    <g transform="translate(905 360)"><circle r="45" fill="#61bdf1" stroke="#fff" stroke-opacity=".55" stroke-width="6"/><text fill="#142238">2</text></g>
    <g transform="translate(360 545)"><circle r="40" fill="#6bd28d" stroke="#fff" stroke-opacity=".55" stroke-width="6"/><text fill="#173021">1</text></g>
    <g transform="translate(840 548)"><circle r="40" fill="#ff6767" stroke="#fff" stroke-opacity=".55" stroke-width="6"/><text fill="#36191d">2</text></g>
    <g transform="translate(250 500)"><circle r="34" fill="#ffad52" stroke="#fff" stroke-opacity=".55" stroke-width="5"/><text fill="#392313">1</text></g>
  </g>
  <path d="M550 272 C520 220 560 196 540 150 M620 275 C655 225 610 205 638 160 M680 286 C720 245 700 214 730 190" fill="none" stroke="#f8dd8b" stroke-opacity=".55" stroke-width="11" stroke-linecap="round"/>
  <text x="600" y="635" text-anchor="middle" font-family="system-ui,sans-serif" font-size="25" font-weight="700" fill="#f7eefb">DRAW · PUSH YOUR LUCK · BUILD YOUR BAG</text>
</svg>